Aldone-Light.ufo
<glyph name="period" format="1">
  <advance width="263"/>
  <unicode hex="002E"/>
  <outline>
    <contour>
      <point x="100" y="31" type="line"/>
      <point x="99" y="11"/>
      <point x="111" y="-1"/>
      <point x="131" y="0" type="curve"/>
      <point x="132" y="0" type="line"/>
      <point x="152" y="-1"/>
      <point x="164" y="11"/>
      <point x="163" y="31" type="curve"/>
      <point x="163" y="32" type="line"/>
      <point x="164" y="52"/>
      <point x="152" y="64"/>
      <point x="132" y="63" type="curve"/>
      <point x="131" y="63" type="line"/>
      <point x="111" y="64"/>
      <point x="99" y="52"/>
      <point x="100" y="32" type="curve"/>
    </contour>
  </outline>
</glyph>
<glyph name="one" format="1">
  <advance width="391"/>
  <unicode hex="0031"/>
  <outline>
    <contour>
      <point x="271" y="694" type="line" smooth="yes"/>
      <point x="271" y="697"/>
      <point x="268" y="700"/>
      <point x="265" y="700" type="curve"/>
      <point x="226" y="700" type="line"/>
      <point x="226" y="6" type="line" smooth="yes"/>
      <point x="226" y="3"/>
      <point x="229" y="0"/>
      <point x="232" y="0" type="curve" smooth="yes"/>
      <point x="265" y="0" type="line" smooth="yes"/>
      <point x="268" y="0"/>
      <point x="271" y="3"/>
      <point x="271" y="6" type="curve" smooth="yes"/>
    </contour>
    <contour>
      <point x="79" y="586"/>
      <point x="80" y="581"/>
      <point x="81" y="580" type="curve" smooth="yes"/>
      <point x="100" y="555" type="line" smooth="yes"/>
      <point x="102" y="552"/>
      <point x="106" y="553"/>
      <point x="108" y="555" type="curve" smooth="yes"/>
      <point x="226" y="647" type="line"/>
      <point x="226" y="700" type="line"/>
      <point x="81" y="588" type="line" smooth="yes"/>
    </contour>
  </outline>
</glyph>
<glyph name="two" format="1">
  <advance width="634"/>
  <unicode hex="0032"/>
  <outline>
    <contour>
      <point x="537" y="0" type="line" smooth="yes"/>
      <point x="541" y="0"/>
      <point x="543" y="2"/>
      <point x="543" y="6" type="curve" smooth="yes"/>
      <point x="543" y="34" type="line" smooth="yes"/>
      <point x="543" y="38"/>
      <point x="541" y="40"/>
      <point x="537" y="40" type="curve" smooth="yes"/>
      <point x="132" y="40" type="line" smooth="yes"/>
      <point x="127" y="40"/>
      <point x="123" y="41"/>
      <point x="123" y="49" type="curve" smooth="yes"/>
      <point x="123" y="279"/>
      <point x="554" y="259"/>
      <point x="554" y="505" type="curve" smooth="yes"/>
      <point x="554" y="626"/>
      <point x="464" y="706"/>
      <point x="328" y="706" type="curve" smooth="yes"/>
      <point x="193" y="706"/>
      <point x="103" y="615"/>
      <point x="103" y="478" type="curve" smooth="yes"/>
      <point x="103" y="474"/>
      <point x="106" y="471"/>
      <point x="111" y="471" type="curve" smooth="yes"/>
      <point x="138" y="471" type="line" smooth="yes"/>
      <point x="143" y="471"/>
      <point x="146" y="474"/>
      <point x="146" y="479" type="curve" smooth="yes"/>
      <point x="146" y="591"/>
      <point x="219" y="666"/>
      <point x="328" y="666" type="curve" smooth="yes"/>
      <point x="436" y="666"/>
      <point x="508" y="602"/>
      <point x="508" y="505" type="curve" smooth="yes"/>
      <point x="508" y="300"/>
      <point x="80" y="316"/>
      <point x="80" y="49" type="curve" smooth="yes"/>
      <point x="80" y="6" type="line" smooth="yes"/>
      <point x="80" y="2"/>
      <point x="82" y="0"/>
      <point x="86" y="0" type="curve" smooth="yes"/>
    </contour>
  </outline>
</glyph>
<glyph name="three" format="1">
  <advance width="652"/>
  <unicode hex="0033"/>
  <outline>
    <contour>
      <point x="86" y="70"/>
      <point x="184" y="-6"/>
      <point x="326" y="-6" type="curve" smooth="yes"/>
      <point x="474" y="-6"/>
      <point x="572" y="72"/>
      <point x="572" y="189" type="curve" smooth="yes"/>
      <point x="572" y="273"/>
      <point x="519" y="351"/>
      <point x="440" y="383" type="curve"/>
      <point x="501" y="409"/>
      <point x="542" y="469"/>
      <point x="542" y="532" type="curve" smooth="yes"/>
      <point x="542" y="635"/>
      <point x="456" y="704"/>
      <point x="326" y="704" type="curve" smooth="yes"/>
      <point x="201" y="704"/>
      <point x="115" y="638"/>
      <point x="110" y="538" type="curve"/>
      <point x="110" y="534"/>
      <point x="112" y="532"/>
      <point x="116" y="532" type="curve" smooth="yes"/>
      <point x="152" y="532" type="line" smooth="yes"/>
      <point x="156" y="532"/>
      <point x="158" y="534"/>
      <point x="158" y="538" type="curve"/>
      <point x="163" y="612"/>
      <point x="230" y="662"/>
      <point x="326" y="662" type="curve" smooth="yes"/>
      <point x="427" y="662"/>
      <point x="494" y="610"/>
      <point x="494" y="532" type="curve" smooth="yes"/>
      <point x="494" y="455"/>
      <point x="427" y="403"/>
      <point x="326" y="403" type="curve" smooth="yes"/>
      <point x="282" y="403" type="line" smooth="yes"/>
      <point x="278" y="403"/>
      <point x="276" y="401"/>
      <point x="276" y="397" type="curve" smooth="yes"/>
      <point x="276" y="367" type="line" smooth="yes"/>
      <point x="276" y="363"/>
      <point x="278" y="361"/>
      <point x="282" y="361" type="curve" smooth="yes"/>
      <point x="326" y="361" type="line" smooth="yes"/>
      <point x="445" y="361"/>
      <point x="524" y="292"/>
      <point x="524" y="189" type="curve" smooth="yes"/>
      <point x="524" y="97"/>
      <point x="445" y="36"/>
      <point x="326" y="36" type="curve" smooth="yes"/>
      <point x="213" y="36"/>
      <point x="134" y="95"/>
      <point x="128" y="183" type="curve"/>
      <point x="128" y="187"/>
      <point x="126" y="189"/>
      <point x="122" y="189" type="curve" smooth="yes"/>
      <point x="86" y="189" type="line" smooth="yes"/>
      <point x="82" y="189"/>
      <point x="80" y="187"/>
      <point x="80" y="183" type="curve"/>
    </contour>
  </outline>
</glyph>
<glyph name="five" format="1">
  <advance width="626"/>
  <unicode hex="0035"/>
  <outline>
    <contour>
      <point x="449" y="-6"/>
      <point x="546" y="88"/>
      <point x="546" y="229" type="curve" smooth="yes"/>
      <point x="546" y="365"/>
      <point x="453" y="455"/>
      <point x="314" y="455" type="curve" smooth="yes"/>
      <point x="243" y="455"/>
      <point x="175" y="432"/>
      <point x="146" y="392" type="curve" smooth="yes"/>
      <point x="141" y="385"/>
      <point x="138" y="386"/>
      <point x="139" y="395" type="curve" smooth="yes"/>
      <point x="165" y="652" type="line" smooth="yes"/>
      <point x="165" y="656"/>
      <point x="167" y="658"/>
      <point x="171" y="658" type="curve" smooth="yes"/>
      <point x="515" y="658" type="line" smooth="yes"/>
      <point x="519" y="658"/>
      <point x="521" y="660"/>
      <point x="521" y="664" type="curve" smooth="yes"/>
      <point x="521" y="694" type="line" smooth="yes"/>
      <point x="521" y="698"/>
      <point x="519" y="700"/>
      <point x="515" y="700" type="curve" smooth="yes"/>
      <point x="130" y="700" type="line" smooth="yes"/>
      <point x="126" y="700"/>
      <point x="124" y="698"/>
      <point x="124" y="694" type="curve" smooth="yes"/>
      <point x="94" y="348" type="line" smooth="yes"/>
      <point x="94" y="344"/>
      <point x="96" y="342"/>
      <point x="100" y="342" type="curve" smooth="yes"/>
      <point x="134" y="342" type="line" smooth="yes"/>
      <point x="137" y="342"/>
      <point x="140" y="343"/>
      <point x="141" y="346" type="curve"/>
      <point x="168" y="386"/>
      <point x="236" y="413"/>
      <point x="314" y="413" type="curve" smooth="yes"/>
      <point x="426" y="413"/>
      <point x="500" y="339"/>
      <point x="500" y="229" type="curve" smooth="yes"/>
      <point x="500" y="113"/>
      <point x="422" y="36"/>
      <point x="304" y="36" type="curve" smooth="yes"/>
      <point x="197" y="36"/>
      <point x="125" y="94"/>
      <point x="125" y="181" type="curve" smooth="yes"/>
      <point x="125" y="186"/>
      <point x="122" y="189"/>
      <point x="117" y="189" type="curve" smooth="yes"/>
      <point x="88" y="189" type="line" smooth="yes"/>
      <point x="83" y="189"/>
      <point x="80" y="186"/>
      <point x="80" y="182" type="curve" smooth="yes"/>
      <point x="80" y="69"/>
      <point x="170" y="-6"/>
      <point x="304" y="-6" type="curve" smooth="yes"/>
    </contour>
  </outline>
</glyph>
<glyph name="A" format="1">
  <advance width="638"/>
  <unicode hex="0041"/>
  <outline>
    <contour>
      <point x="138" y="239"/>
      <point x="135" y="236"/>
      <point x="135" y="233" type="curve" smooth="yes"/>
      <point x="134" y="203" type="line" smooth="yes"/>
      <point x="134" y="200"/>
      <point x="137" y="197"/>
      <point x="140" y="197" type="curve" smooth="yes"/>
      <point x="498" y="196" type="line" smooth="yes"/>
      <point x="500" y="196"/>
      <point x="504" y="199"/>
      <point x="504" y="203" type="curve"/>
      <point x="503" y="232" type="line"/>
      <point x="503" y="235"/>
      <point x="501" y="238"/>
      <point x="498" y="238" type="curve" smooth="yes"/>
      <point x="140" y="239" type="line" smooth="yes"/>
    </contour>
    <contour>
      <point x="76" y="0" type="line" smooth="yes"/>
      <point x="79" y="0"/>
      <point x="82" y="1"/>
      <point x="83" y="5" type="curve"/>
      <point x="315" y="643" type="line" smooth="yes"/>
      <point x="317" y="649"/>
      <point x="321" y="649"/>
      <point x="323" y="643" type="curve" smooth="yes"/>
      <point x="555" y="5" type="line"/>
      <point x="556" y="1"/>
      <point x="559" y="0"/>
      <point x="562" y="0" type="curve" smooth="yes"/>
      <point x="594" y="0" type="line" smooth="yes"/>
      <point x="598" y="0"/>
      <point x="599" y="3"/>
      <point x="598" y="7" type="curve"/>
      <point x="347" y="696" type="line" smooth="yes"/>
      <point x="346" y="699"/>
      <point x="343" y="700"/>
      <point x="340" y="700" type="curve" smooth="yes"/>
      <point x="298" y="700" type="line" smooth="yes"/>
      <point x="295" y="700"/>
      <point x="292" y="699"/>
      <point x="291" y="696" type="curve" smooth="yes"/>
      <point x="40" y="7" type="line"/>
      <point x="39" y="3"/>
      <point x="40" y="0"/>
      <point x="44" y="0" type="curve" smooth="yes"/>
    </contour>
  </outline>
</glyph>
<glyph name="B" format="1">
  <advance width="584"/>
  <unicode hex="0042"/>
  <outline>
    <contour>
      <point x="60" y="3"/>
      <point x="63" y="0"/>
      <point x="66" y="0" type="curve" smooth="yes"/>
      <point x="301" y="0" type="line" smooth="yes"/>
      <point x="435" y="0"/>
      <point x="524" y="75"/>
      <point x="524" y="188" type="curve" smooth="yes"/>
      <point x="524" y="277"/>
      <point x="457" y="343"/>
      <point x="377" y="371" type="curve"/>
      <point x="377" y="374" type="line"/>
      <point x="430" y="404"/>
      <point x="474" y="456"/>
      <point x="474" y="522" type="curve" smooth="yes"/>
      <point x="474" y="629"/>
      <point x="393" y="700"/>
      <point x="271" y="700" type="curve" smooth="yes"/>
      <point x="66" y="700" type="line" smooth="yes"/>
      <point x="63" y="700"/>
      <point x="60" y="697"/>
      <point x="60" y="694" type="curve" smooth="yes"/>
      <point x="60" y="6" type="line" smooth="yes"/>
    </contour>
    <contour>
      <point x="105" y="338" type="line" smooth="yes"/>
      <point x="105" y="342"/>
      <point x="107" y="344"/>
      <point x="111" y="344" type="curve" smooth="yes"/>
      <point x="301" y="344" type="line" smooth="yes"/>
      <point x="406" y="344"/>
      <point x="476" y="282"/>
      <point x="476" y="188" type="curve" smooth="yes"/>
      <point x="476" y="100"/>
      <point x="406" y="42"/>
      <point x="301" y="42" type="curve" smooth="yes"/>
      <point x="111" y="42" type="line" smooth="yes"/>
      <point x="107" y="42"/>
      <point x="105" y="44"/>
      <point x="105" y="48" type="curve" smooth="yes"/>
    </contour>
    <contour>
      <point x="105" y="652" type="line" smooth="yes"/>
      <point x="105" y="656"/>
      <point x="108" y="658"/>
      <point x="111" y="658" type="curve" smooth="yes"/>
      <point x="271" y="658" type="line" smooth="yes"/>
      <point x="364" y="658"/>
      <point x="426" y="604"/>
      <point x="426" y="522" type="curve" smooth="yes"/>
      <point x="426" y="440"/>
      <point x="364" y="386"/>
      <point x="271" y="386" type="curve" smooth="yes"/>
      <point x="111" y="386" type="line" smooth="yes"/>
      <point x="107" y="386"/>
      <point x="105" y="388"/>
      <point x="105" y="392" type="curve" smooth="yes"/>
    </contour>
  </outline>
</glyph>
<glyph name="C" format="1">
  <advance width="685"/>
  <unicode hex="0043"/>
  <outline>
    <contour>
      <point x="60" y="136"/>
      <point x="182" y="-6"/>
      <point x="366" y="-6" type="curve" smooth="yes"/>
      <point x="491" y="-6"/>
      <point x="595" y="74"/>
      <point x="625" y="194" type="curve" smooth="yes"/>
      <point x="626" y="198"/>
      <point x="624" y="200"/>
      <point x="619" y="200" type="curve" smooth="yes"/>
      <point x="586" y="200" type="line" smooth="yes"/>
      <point x="583" y="200"/>
      <point x="581" y="198"/>
      <point x="580" y="194" type="curve" smooth="yes"/>
      <point x="556" y="99"/>
      <point x="470" y="36"/>
      <point x="366" y="36" type="curve" smooth="yes"/>
      <point x="211" y="36"/>
      <point x="108" y="162"/>
      <point x="108" y="350" type="curve" smooth="yes"/>
      <point x="108" y="538"/>
      <point x="211" y="664"/>
      <point x="366" y="664" type="curve" smooth="yes"/>
      <point x="470" y="664"/>
      <point x="556" y="601"/>
      <point x="580" y="506" type="curve" smooth="yes"/>
      <point x="581" y="502"/>
      <point x="583" y="500"/>
      <point x="586" y="500" type="curve" smooth="yes"/>
      <point x="619" y="500" type="line" smooth="yes"/>
      <point x="623" y="500"/>
      <point x="625" y="502"/>
      <point x="625" y="506" type="curve"/>
      <point x="594" y="626"/>
      <point x="491" y="706"/>
      <point x="366" y="706" type="curve" smooth="yes"/>
      <point x="182" y="706"/>
      <point x="60" y="564"/>
      <point x="60" y="350" type="curve" smooth="yes"/>
    </contour>
  </outline>
</glyph>
<glyph name="F" format="1">
  <advance width="523"/>
  <unicode hex="0046"/>
  <outline>
    <contour>
      <point x="105" y="694" type="line" smooth="yes"/>
      <point x="105" y="697"/>
      <point x="102" y="700"/>
      <point x="99" y="700" type="curve" smooth="yes"/>
      <point x="66" y="700" type="line" smooth="yes"/>
      <point x="63" y="700"/>
      <point x="60" y="697"/>
      <point x="60" y="694" type="curve" smooth="yes"/>
      <point x="60" y="6" type="line" smooth="yes"/>
      <point x="60" y="3"/>
      <point x="63" y="0"/>
      <point x="66" y="0" type="curve" smooth="yes"/>
      <point x="99" y="0" type="line" smooth="yes"/>
      <point x="102" y="0"/>
      <point x="105" y="3"/>
      <point x="105" y="6" type="curve" smooth="yes"/>
    </contour>
    <contour>
      <point x="77" y="382"/>
      <point x="74" y="379"/>
      <point x="74" y="376" type="curve" smooth="yes"/>
      <point x="73" y="346" type="line" smooth="yes"/>
      <point x="73" y="343"/>
      <point x="76" y="340"/>
      <point x="79" y="340" type="curve" smooth="yes"/>
      <point x="407" y="339" type="line" smooth="yes"/>
      <point x="409" y="339"/>
      <point x="413" y="342"/>
      <point x="413" y="346" type="curve" smooth="yes"/>
      <point x="412" y="375" type="line" smooth="yes"/>
      <point x="412" y="378"/>
      <point x="410" y="381"/>
      <point x="407" y="381" type="curve" smooth="yes"/>
      <point x="79" y="382" type="line" smooth="yes"/>
    </contour>
    <contour>
      <point x="77" y="700"/>
      <point x="74" y="697"/>
      <point x="74" y="694" type="curve" smooth="yes"/>
      <point x="73" y="664" type="line" smooth="yes"/>
      <point x="73" y="661"/>
      <point x="76" y="658"/>
      <point x="79" y="658" type="curve" smooth="yes"/>
      <point x="477" y="657" type="line" smooth="yes"/>
      <point x="479" y="657"/>
      <point x="483" y="660"/>
      <point x="483" y="664" type="curve" smooth="yes"/>
      <point x="482" y="693" type="line" smooth="yes"/>
      <point x="482" y="696"/>
      <point x="480" y="699"/>
      <point x="477" y="699" type="curve" smooth="yes"/>
      <point x="79" y="700" type="line" smooth="yes"/>
    </contour>
  </outline>
</glyph>
<glyph name="H" format="1">
  <advance width="615"/>
  <unicode hex="0048"/>
  <outline>
    <contour>
      <point x="105" y="694" type="line" smooth="yes"/>
      <point x="105" y="697"/>
      <point x="102" y="700"/>
      <point x="99" y="700" type="curve" smooth="yes"/>
      <point x="66" y="700" type="line" smooth="yes"/>
      <point x="63" y="700"/>
      <point x="60" y="697"/>
      <point x="60" y="694" type="curve" smooth="yes"/>
      <point x="60" y="6" type="line" smooth="yes"/>
      <point x="60" y="3"/>
      <point x="63" y="0"/>
      <point x="66" y="0" type="curve" smooth="yes"/>
      <point x="99" y="0" type="line" smooth="yes"/>
      <point x="102" y="0"/>
      <point x="105" y="3"/>
      <point x="105" y="6" type="curve" smooth="yes"/>
    </contour>
    <contour>
      <point x="555" y="694" type="line" smooth="yes"/>
      <point x="555" y="697"/>
      <point x="552" y="700"/>
      <point x="549" y="700" type="curve" smooth="yes"/>
      <point x="516" y="700" type="line" smooth="yes"/>
      <point x="513" y="700"/>
      <point x="510" y="697"/>
      <point x="510" y="694" type="curve" smooth="yes"/>
      <point x="510" y="6" type="line" smooth="yes"/>
      <point x="510" y="3"/>
      <point x="513" y="0"/>
      <point x="516" y="0" type="curve" smooth="yes"/>
      <point x="549" y="0" type="line" smooth="yes"/>
      <point x="552" y="0"/>
      <point x="555" y="3"/>
      <point x="555" y="6" type="curve" smooth="yes"/>
    </contour>
    <contour>
      <point x="77" y="382"/>
      <point x="74" y="379"/>
      <point x="74" y="376" type="curve" smooth="yes"/>
      <point x="73" y="346" type="line" smooth="yes"/>
      <point x="73" y="343"/>
      <point x="76" y="340"/>
      <point x="79" y="340" type="curve" smooth="yes"/>
      <point x="527" y="339" type="line" smooth="yes"/>
      <point x="529" y="339"/>
      <point x="533" y="342"/>
      <point x="533" y="346" type="curve" smooth="yes"/>
      <point x="532" y="375" type="line" smooth="yes"/>
      <point x="532" y="378"/>
      <point x="530" y="381"/>
      <point x="527" y="381" type="curve" smooth="yes"/>
      <point x="79" y="382" type="line" smooth="yes"/>
    </contour>
  </outline>
</glyph>
<glyph name="I" format="1">
  <advance width="243"/>
  <unicode hex="0049"/>
  <outline>
    <contour>
      <point x="145" y="694" type="line" smooth="yes"/>
      <point x="145" y="697"/>
      <point x="142" y="700"/>
      <point x="139" y="700" type="curve" smooth="yes"/>
      <point x="106" y="700" type="line" smooth="yes"/>
      <point x="103" y="700"/>
      <point x="100" y="697"/>
      <point x="100" y="694" type="curve" smooth="yes"/>
      <point x="100" y="6" type="line" smooth="yes"/>
      <point x="100" y="3"/>
      <point x="103" y="0"/>
      <point x="106" y="0" type="curve" smooth="yes"/>
      <point x="139" y="0" type="line" smooth="yes"/>
      <point x="142" y="0"/>
      <point x="145" y="3"/>
      <point x="145" y="6" type="curve" smooth="yes"/>
    </contour>
  </outline>
</glyph>
<glyph name="L" format="1">
  <advance width="532"/>
  <unicode hex="004C"/>
  <outline>
    <contour>
      <point x="105" y="694" type="line" smooth="yes"/>
      <point x="105" y="697"/>
      <point x="102" y="700"/>
      <point x="99" y="700" type="curve" smooth="yes"/>
      <point x="66" y="700" type="line" smooth="yes"/>
      <point x="63" y="700"/>
      <point x="60" y="697"/>
      <point x="60" y="694" type="curve" smooth="yes"/>
      <point x="60" y="6" type="line" smooth="yes"/>
      <point x="60" y="3"/>
      <point x="63" y="0"/>
      <point x="66" y="0" type="curve" smooth="yes"/>
      <point x="99" y="0" type="line" smooth="yes"/>
      <point x="102" y="0"/>
      <point x="105" y="3"/>
      <point x="105" y="6" type="curve" smooth="yes"/>
    </contour>
    <contour>
      <point x="83" y="42"/>
      <point x="80" y="39"/>
      <point x="80" y="36" type="curve" smooth="yes"/>
      <point x="80" y="6" type="line" smooth="yes"/>
      <point x="80" y="3"/>
      <point x="83" y="0"/>
      <point x="86" y="0" type="curve" smooth="yes"/>
      <point x="466" y="0" type="line" smooth="yes"/>
      <point x="469" y="0"/>
      <point x="472" y="3"/>
      <point x="472" y="6" type="curve" smooth="yes"/>
      <point x="472" y="36" type="line" smooth="yes"/>
      <point x="472" y="39"/>
      <point x="469" y="42"/>
      <point x="466" y="42" type="curve" smooth="yes"/>
      <point x="86" y="42" type="line" smooth="yes"/>
    </contour>
  </outline>
</glyph>
<glyph name="Q" format="1">
  <advance width="732"/>
  <unicode hex="0051"/>
  <outline>
    <contour>
      <point x="550" y="-6"/>
      <point x="672" y="140"/>
      <point x="672" y="358" type="curve" smooth="yes"/>
      <point x="672" y="567"/>
      <point x="550" y="706"/>
      <point x="366" y="706" type="curve" smooth="yes"/>
      <point x="182" y="706"/>
      <point x="60" y="567"/>
      <point x="60" y="358" type="curve" smooth="yes"/>
      <point x="60" y="140"/>
      <point x="182" y="-6"/>
      <point x="366" y="-6" type="curve" smooth="yes"/>
    </contour>
    <contour>
      <point x="211" y="36"/>
      <point x="108" y="165"/>
      <point x="108" y="358" type="curve" smooth="yes"/>
      <point x="108" y="542"/>
      <point x="211" y="664"/>
      <point x="366" y="664" type="curve" smooth="yes"/>
      <point x="521" y="664"/>
      <point x="624" y="542"/>
      <point x="624" y="358" type="curve" smooth="yes"/>
      <point x="624" y="165"/>
      <point x="521" y="36"/>
      <point x="366" y="36" type="curve" smooth="yes"/>
    </contour>
    <contour>
      <point x="480" y="222"/>
      <point x="476" y="222"/>
      <point x="474" y="220" type="curve" smooth="yes"/>
      <point x="449" y="195" type="line" smooth="yes"/>
      <point x="447" y="193"/>
      <point x="447" y="189"/>
      <point x="449" y="187" type="curve" smooth="yes"/>
      <point x="641" y="-5" type="line" smooth="yes"/>
      <point x="643" y="-7"/>
      <point x="647" y="-7"/>
      <point x="649" y="-5" type="curve" smooth="yes"/>
      <point x="674" y="21" type="line" smooth="yes"/>
      <point x="676" y="23"/>
      <point x="676" y="27"/>
      <point x="674" y="29" type="curve" smooth="yes"/>
      <point x="482" y="220" type="line"/>
    </contour>
  </outline>
</glyph>
<glyph name="R" format="1">
  <advance width="586"/>
  <unicode hex="0052"/>
  <outline>
    <contour>
      <point x="60" y="3"/>
      <point x="63" y="0"/>
      <point x="66" y="0" type="curve" smooth="yes"/>
      <point x="99" y="0" type="line" smooth="yes"/>
      <point x="102" y="0"/>
      <point x="105" y="3"/>
      <point x="105" y="6" type="curve" smooth="yes"/>
      <point x="105" y="298" type="line" smooth="yes"/>
      <point x="105" y="302"/>
      <point x="107" y="304"/>
      <point x="111" y="304" type="curve" smooth="yes"/>
      <point x="345" y="304" type="line" smooth="yes"/>
      <point x="371" y="304"/>
      <point x="390" y="272"/>
      <point x="421" y="178" type="curve" smooth="yes"/>
      <point x="478" y="5" type="line"/>
      <point x="479" y="1"/>
      <point x="482" y="0"/>
      <point x="485" y="0" type="curve" smooth="yes"/>
      <point x="521" y="0" type="line" smooth="yes"/>
      <point x="525" y="0"/>
      <point x="527" y="3"/>
      <point x="526" y="7" type="curve"/>
      <point x="469" y="178" type="line" smooth="yes"/>
      <point x="431" y="293"/>
      <point x="422" y="307"/>
      <point x="395" y="317" type="curve"/>
      <point x="392" y="325" type="line"/>
      <point x="465" y="356"/>
      <point x="514" y="427"/>
      <point x="514" y="502" type="curve" smooth="yes"/>
      <point x="514" y="621"/>
      <point x="429" y="700"/>
      <point x="301" y="700" type="curve" smooth="yes"/>
      <point x="66" y="700" type="line" smooth="yes"/>
      <point x="63" y="700"/>
      <point x="60" y="697"/>
      <point x="60" y="694" type="curve" smooth="yes"/>
      <point x="60" y="6" type="line" smooth="yes"/>
    </contour>
    <contour>
      <point x="105" y="652" type="line" smooth="yes"/>
      <point x="105" y="656"/>
      <point x="107" y="658"/>
      <point x="111" y="658" type="curve" smooth="yes"/>
      <point x="301" y="658" type="line" smooth="yes"/>
      <point x="400" y="658"/>
      <point x="466" y="596"/>
      <point x="466" y="502" type="curve" smooth="yes"/>
      <point x="466" y="408"/>
      <point x="400" y="346"/>
      <point x="301" y="346" type="curve" smooth="yes"/>
      <point x="111" y="346" type="line" smooth="yes"/>
      <point x="107" y="346"/>
      <point x="105" y="348"/>
      <point x="105" y="352" type="curve" smooth="yes"/>
    </contour>
  </outline>
</glyph>
<glyph name="S" format="1">
  <advance width="614"/>
  <unicode hex="0053"/>
  <outline>
    <contour>
      <point x="175" y="706"/>
      <point x="81" y="634"/>
      <point x="80" y="525" type="curve"/>
      <point x="126" y="525" type="line"/>
      <point x="127" y="608"/>
      <point x="203" y="664"/>
      <point x="316" y="664" type="curve" smooth="yes"/>
      <point x="432" y="664"/>
      <point x="496" y="613"/>
      <point x="496" y="519" type="curve" smooth="yes"/>
      <point x="496" y="514"/>
      <point x="500" y="511"/>
      <point x="504" y="511" type="curve" smooth="yes"/>
      <point x="533" y="511" type="line" smooth="yes"/>
      <point x="537" y="511"/>
      <point x="541" y="514"/>
      <point x="541" y="518" type="curve" smooth="yes"/>
      <point x="541" y="639"/>
      <point x="461" y="706"/>
      <point x="316" y="706" type="curve" smooth="yes"/>
    </contour>
    <contour>
      <point x="80" y="249"/>
      <point x="518" y="402"/>
      <point x="518" y="189" type="curve"/>
      <point x="564" y="189" type="line"/>
      <point x="564" y="455"/>
      <point x="126" y="297"/>
      <point x="126" y="525" type="curve"/>
      <point x="80" y="525" type="line"/>
    </contour>
    <contour>
      <point x="465" y="-6"/>
      <point x="564" y="72"/>
      <point x="564" y="189" type="curve"/>
      <point x="518" y="189" type="line"/>
      <point x="518" y="97"/>
      <point x="437" y="36"/>
      <point x="316" y="36" type="curve" smooth="yes"/>
      <point x="174" y="36"/>
      <point x="95" y="102"/>
      <point x="95" y="221" type="curve" smooth="yes"/>
      <point x="95" y="226"/>
      <point x="91" y="229"/>
      <point x="87" y="229" type="curve" smooth="yes"/>
      <point x="58" y="229" type="line" smooth="yes"/>
      <point x="54" y="229"/>
      <point x="50" y="226"/>
      <point x="50" y="222" type="curve" smooth="yes"/>
      <point x="50" y="75"/>
      <point x="145" y="-6"/>
      <point x="316" y="-6" type="curve" smooth="yes"/>
    </contour>
  </outline>
</glyph>
<glyph name="V" format="1">
  <advance width="638"/>
  <unicode hex="0056"/>
  <outline>
    <contour>
      <point x="291" y="4" type="line" smooth="yes"/>
      <point x="292" y="1"/>
      <point x="295" y="0"/>
      <point x="298" y="0" type="curve" smooth="yes"/>
      <point x="340" y="0" type="line" smooth="yes"/>
      <point x="343" y="0"/>
      <point x="346" y="1"/>
      <point x="347" y="4" type="curve" smooth="yes"/>
      <point x="598" y="693" type="line"/>
      <point x="599" y="697"/>
      <point x="598" y="700"/>
      <point x="594" y="700" type="curve" smooth="yes"/>
      <point x="562" y="700" type="line" smooth="yes"/>
      <point x="559" y="700"/>
      <point x="556" y="699"/>
      <point x="555" y="695" type="curve"/>
      <point x="323" y="57" type="line" smooth="yes"/>
      <point x="321" y="51"/>
      <point x="317" y="51"/>
      <point x="315" y="57" type="curve" smooth="yes"/>
      <point x="83" y="695" type="line"/>
      <point x="82" y="699"/>
      <point x="79" y="700"/>
      <point x="76" y="700" type="curve" smooth="yes"/>
      <point x="44" y="700" type="line" smooth="yes"/>
      <point x="40" y="700"/>
      <point x="39" y="697"/>
      <point x="40" y="693" type="curve"/>
    </contour>
  </outline>
</glyph>
<glyph name="W" format="1">
  <advance width="1076"/>
  <unicode hex="0057"/>
  <outline>
    <contour>
      <point x="281" y="4" type="line" smooth="yes"/>
      <point x="282" y="1"/>
      <point x="285" y="0"/>
      <point x="288" y="0" type="curve" smooth="yes"/>
      <point x="330" y="0" type="line" smooth="yes"/>
      <point x="333" y="0"/>
      <point x="336" y="1"/>
      <point x="337" y="4" type="curve" smooth="yes"/>
      <point x="534" y="638" type="line" smooth="yes"/>
      <point x="536" y="644"/>
      <point x="540" y="644"/>
      <point x="542" y="638" type="curve" smooth="yes"/>
      <point x="739" y="4" type="line" smooth="yes"/>
      <point x="740" y="1"/>
      <point x="743" y="0"/>
      <point x="746" y="0" type="curve" smooth="yes"/>
      <point x="788" y="0" type="line" smooth="yes"/>
      <point x="791" y="0"/>
      <point x="794" y="1"/>
      <point x="795" y="4" type="curve" smooth="yes"/>
      <point x="1016" y="693" type="line"/>
      <point x="1017" y="697"/>
      <point x="1016" y="700"/>
      <point x="1012" y="700" type="curve" smooth="yes"/>
      <point x="980" y="700" type="line" smooth="yes"/>
      <point x="977" y="700"/>
      <point x="974" y="699"/>
      <point x="973" y="695" type="curve"/>
      <point x="771" y="57" type="line" smooth="yes"/>
      <point x="769" y="51"/>
      <point x="765" y="51"/>
      <point x="763" y="57" type="curve" smooth="yes"/>
      <point x="571" y="695" type="line"/>
      <point x="570" y="699"/>
      <point x="567" y="700"/>
      <point x="564" y="700" type="curve" smooth="yes"/>
      <point x="512" y="700" type="line" smooth="yes"/>
      <point x="509" y="700"/>
      <point x="506" y="699"/>
      <point x="505" y="695" type="curve"/>
      <point x="313" y="57" type="line" smooth="yes"/>
      <point x="311" y="51"/>
      <point x="307" y="51"/>
      <point x="305" y="57" type="curve" smooth="yes"/>
      <point x="103" y="695" type="line"/>
      <point x="102" y="699"/>
      <point x="99" y="700"/>
      <point x="96" y="700" type="curve" smooth="yes"/>
      <point x="64" y="700" type="line" smooth="yes"/>
      <point x="60" y="700"/>
      <point x="59" y="697"/>
      <point x="60" y="693" type="curve"/>
    </contour>
  </outline>
</glyph>
<glyph name="X" format="1">
  <advance width="654"/>
  <unicode hex="0058"/>
  <outline>
    <contour>
      <point x="63" y="3"/>
      <point x="64" y="0"/>
      <point x="69" y="0" type="curve" smooth="yes"/>
      <point x="102" y="0" type="line" smooth="yes"/>
      <point x="105" y="0"/>
      <point x="108" y="2"/>
      <point x="110" y="4" type="curve"/>
      <point x="322" y="332" type="line"/>
      <point x="534" y="4" type="line"/>
      <point x="536" y="2"/>
      <point x="539" y="0"/>
      <point x="542" y="0" type="curve" smooth="yes"/>
      <point x="575" y="0" type="line" smooth="yes"/>
      <point x="580" y="0"/>
      <point x="581" y="3"/>
      <point x="579" y="7" type="curve"/>
      <point x="345" y="365" type="line"/>
      <point x="559" y="693" type="line"/>
      <point x="561" y="697"/>
      <point x="560" y="700"/>
      <point x="555" y="700" type="curve" smooth="yes"/>
      <point x="522" y="700" type="line" smooth="yes"/>
      <point x="519" y="700"/>
      <point x="516" y="698"/>
      <point x="514" y="696" type="curve"/>
      <point x="322" y="398" type="line"/>
      <point x="130" y="696" type="line"/>
      <point x="128" y="698"/>
      <point x="125" y="700"/>
      <point x="122" y="700" type="curve" smooth="yes"/>
      <point x="89" y="700" type="line" smooth="yes"/>
      <point x="84" y="700"/>
      <point x="83" y="697"/>
      <point x="85" y="693" type="curve"/>
      <point x="299" y="365" type="line"/>
      <point x="65" y="7" type="line"/>
    </contour>
  </outline>
</glyph>
<glyph name="c" format="1">
  <advance width="548"/>
  <unicode hex="0063"/>
  <outline>
    <contour>
      <point x="392" y="-4"/>
      <point x="468" y="56"/>
      <point x="488" y="146" type="curve" smooth="yes"/>
      <point x="489" y="149"/>
      <point x="487" y="151"/>
      <point x="482" y="151" type="curve" smooth="yes"/>
      <point x="452" y="151" type="line" smooth="yes"/>
      <point x="448" y="151"/>
      <point x="446" y="149"/>
      <point x="446" y="145" type="curve"/>
      <point x="422" y="80"/>
      <point x="362" y="36"/>
      <point x="296" y="36" type="curve" smooth="yes"/>
      <point x="182" y="36"/>
      <point x="106" y="128"/>
      <point x="106" y="265" type="curve" smooth="yes"/>
      <point x="106" y="398"/>
      <point x="182" y="486"/>
      <point x="296" y="486" type="curve" smooth="yes"/>
      <point x="366" y="486"/>
      <point x="426" y="442"/>
      <point x="446" y="377" type="curve" smooth="yes"/>
      <point x="447" y="373"/>
      <point x="449" y="371"/>
      <point x="452" y="371" type="curve" smooth="yes"/>
      <point x="482" y="371" type="line" smooth="yes"/>
      <point x="487" y="371"/>
      <point x="489" y="373"/>
      <point x="488" y="376" type="curve" smooth="yes"/>
      <point x="468" y="466"/>
      <point x="391" y="526"/>
      <point x="296" y="526" type="curve" smooth="yes"/>
      <point x="154" y="526"/>
      <point x="60" y="422"/>
      <point x="60" y="265" type="curve" smooth="yes"/>
      <point x="60" y="104"/>
      <point x="154" y="-4"/>
      <point x="296" y="-4" type="curve" smooth="yes"/>
    </contour>
  </outline>
</glyph>
<glyph name="d" format="1">
  <advance width="597"/>
  <unicode hex="0064"/>
  <outline>
    <contour>
      <point x="461" y="800" type="line" smooth="yes"/>
      <point x="458" y="800"/>
      <point x="455" y="797"/>
      <point x="455" y="794" type="curve" smooth="yes"/>
      <point x="455" y="483" type="line"/>
      <point x="459" y="416" type="line"/>
      <point x="455" y="418" type="line"/>
      <point x="455" y="102" type="line"/>
      <point x="459" y="104" type="line"/>
      <point x="455" y="7" type="line" smooth="yes"/>
      <point x="455" y="3"/>
      <point x="457" y="0"/>
      <point x="461" y="0" type="curve" smooth="yes"/>
      <point x="491" y="0" type="line" smooth="yes"/>
      <point x="494" y="0"/>
      <point x="497" y="3"/>
      <point x="497" y="6" type="curve" smooth="yes"/>
      <point x="497" y="794" type="line" smooth="yes"/>
      <point x="497" y="797"/>
      <point x="494" y="800"/>
      <point x="491" y="800" type="curve" smooth="yes"/>
    </contour>
    <contour>
      <point x="455" y="102" type="line"/>
      <point x="455" y="186" type="line"/>
      <point x="455" y="107"/>
      <point x="404" y="34"/>
      <point x="298" y="34" type="curve" smooth="yes"/>
      <point x="183" y="34"/>
      <point x="106" y="123"/>
      <point x="106" y="256" type="curve" smooth="yes"/>
      <point x="106" y="394"/>
      <point x="183" y="486"/>
      <point x="298" y="486" type="curve" smooth="yes"/>
      <point x="404" y="486"/>
      <point x="455" y="413"/>
      <point x="455" y="334" type="curve"/>
      <point x="455" y="418" type="line"/>
      <point x="451" y="420" type="line"/>
      <point x="425" y="492"/>
      <point x="370" y="526"/>
      <point x="278" y="526" type="curve" smooth="yes"/>
      <point x="147" y="526"/>
      <point x="60" y="418"/>
      <point x="60" y="256" type="curve" smooth="yes"/>
      <point x="60" y="99"/>
      <point x="147" y="-6"/>
      <point x="278" y="-6" type="curve" smooth="yes"/>
      <point x="370" y="-6"/>
      <point x="425" y="28"/>
      <point x="451" y="100" type="curve"/>
    </contour>
  </outline>
</glyph>
<glyph name="i" format="1">
  <advance width="263"/>
  <unicode hex="0069"/>
  <outline>
    <contour>
      <point x="153" y="514" type="line" smooth="yes"/>
      <point x="153" y="517"/>
      <point x="150" y="520"/>
      <point x="147" y="520" type="curve" smooth="yes"/>
      <point x="116" y="520" type="line" smooth="yes"/>
      <point x="113" y="520"/>
      <point x="110" y="517"/>
      <point x="110" y="514" type="curve" smooth="yes"/>
      <point x="110" y="6" type="line" smooth="yes"/>
      <point x="110" y="3"/>
      <point x="113" y="0"/>
      <point x="116" y="0" type="curve" smooth="yes"/>
      <point x="147" y="0" type="line" smooth="yes"/>
      <point x="150" y="0"/>
      <point x="153" y="3"/>
      <point x="153" y="6" type="curve" smooth="yes"/>
    </contour>
    <contour>
      <point x="100" y="731" type="line"/>
      <point x="99" y="711"/>
      <point x="111" y="699"/>
      <point x="131" y="700" type="curve"/>
      <point x="132" y="700" type="line"/>
      <point x="152" y="699"/>
      <point x="164" y="711"/>
      <point x="163" y="731" type="curve"/>
      <point x="163" y="732" type="line"/>
      <point x="164" y="752"/>
      <point x="152" y="764"/>
      <point x="132" y="763" type="curve"/>
      <point x="131" y="763" type="line"/>
      <point x="111" y="764"/>
      <point x="99" y="752"/>
      <point x="100" y="732" type="curve"/>
    </contour>
  </outline>
</glyph>
<glyph name="k" format="1">
  <advance width="539"/>
  <unicode hex="006B"/>
  <outline>
    <contour>
      <point x="208" y="290" type="line"/>
      <point x="427" y="4" type="line" smooth="yes"/>
      <point x="429" y="2"/>
      <point x="432" y="0"/>
      <point x="435" y="0" type="curve" smooth="yes"/>
      <point x="474" y="0" type="line" smooth="yes"/>
      <point x="479" y="0"/>
      <point x="480" y="3"/>
      <point x="477" y="7" type="curve" smooth="yes"/>
      <point x="250" y="300" type="line" smooth="yes"/>
      <point x="248" y="303"/>
      <point x="246" y="303"/>
      <point x="232" y="303" type="curve"/>
      <point x="228" y="308" type="line"/>
    </contour>
    <contour>
      <point x="138" y="217" type="line"/>
      <point x="451" y="513" type="line" smooth="yes"/>
      <point x="455" y="516"/>
      <point x="453" y="520"/>
      <point x="448" y="520" type="curve" smooth="yes"/>
      <point x="403" y="520" type="line" smooth="yes"/>
      <point x="400" y="520"/>
      <point x="398" y="519"/>
      <point x="396" y="517" type="curve" smooth="yes"/>
      <point x="139" y="270" type="line"/>
    </contour>
    <contour>
      <point x="100" y="6" type="line" smooth="yes"/>
      <point x="100" y="2"/>
      <point x="103" y="0"/>
      <point x="106" y="0" type="curve" smooth="yes"/>
      <point x="137" y="0" type="line" smooth="yes"/>
      <point x="141" y="0"/>
      <point x="143" y="3"/>
      <point x="143" y="6" type="curve" smooth="yes"/>
      <point x="143" y="794" type="line" smooth="yes"/>
      <point x="143" y="798"/>
      <point x="140" y="800"/>
      <point x="137" y="800" type="curve" smooth="yes"/>
      <point x="106" y="800" type="line" smooth="yes"/>
      <point x="102" y="800"/>
      <point x="100" y="797"/>
      <point x="100" y="794" type="curve" smooth="yes"/>
    </contour>
  </outline>
</glyph>
<glyph name="l" format="1">
  <advance width="287"/>
  <unicode hex="006C"/>
  <outline>
    <contour>
      <point x="100" y="100" type="line" smooth="yes"/>
      <point x="100" y="36"/>
      <point x="141" y="-6"/>
      <point x="201" y="-6" type="curve" smooth="yes"/>
      <point x="206" y="-6"/>
      <point x="207" y="-5"/>
      <point x="207" y="0" type="curve" smooth="yes"/>
      <point x="207" y="28" type="line" smooth="yes"/>
      <point x="207" y="33"/>
      <point x="206" y="34"/>
      <point x="201" y="34" type="curve" smooth="yes"/>
      <point x="166" y="34"/>
      <point x="143" y="68"/>
      <point x="143" y="120" type="curve" smooth="yes"/>
      <point x="143" y="794" type="line" smooth="yes"/>
      <point x="143" y="797"/>
      <point x="140" y="800"/>
      <point x="137" y="800" type="curve" smooth="yes"/>
      <point x="106" y="800" type="line" smooth="yes"/>
      <point x="103" y="800"/>
      <point x="100" y="797"/>
      <point x="100" y="794" type="curve" smooth="yes"/>
    </contour>
  </outline>
</glyph>
<glyph name="m" format="1">
  <advance width="841"/>
  <unicode hex="006D"/>
  <outline>
    <contour>
      <point x="100" y="6" type="line" smooth="yes"/>
      <point x="100" y="3"/>
      <point x="103" y="0"/>
      <point x="106" y="0" type="curve" smooth="yes"/>
      <point x="137" y="0" type="line" smooth="yes"/>
      <point x="140" y="0"/>
      <point x="143" y="3"/>
      <point x="143" y="6" type="curve" smooth="yes"/>
      <point x="143" y="417" type="line"/>
      <point x="139" y="416" type="line"/>
      <point x="143" y="514" type="line"/>
      <point x="143" y="517"/>
      <point x="140" y="520"/>
      <point x="137" y="520" type="curve" smooth="yes"/>
      <point x="106" y="520" type="line" smooth="yes"/>
      <point x="103" y="520"/>
      <point x="100" y="517"/>
      <point x="100" y="514" type="curve" smooth="yes"/>
    </contour>
    <contour>
      <point x="452" y="318" type="line" smooth="yes"/>
      <point x="452" y="452"/>
      <point x="395" y="526"/>
      <point x="291" y="526" type="curve" smooth="yes"/>
      <point x="219" y="526"/>
      <point x="159" y="483"/>
      <point x="147" y="418" type="curve"/>
      <point x="143" y="417" type="line"/>
      <point x="143" y="345" type="line"/>
      <point x="143" y="424"/>
      <point x="205" y="486"/>
      <point x="291" y="486" type="curve" smooth="yes"/>
      <point x="367" y="486"/>
      <point x="409" y="426"/>
      <point x="409" y="318" type="curve" smooth="yes"/>
      <point x="409" y="6" type="line" smooth="yes"/>
      <point x="409" y="3"/>
      <point x="412" y="0"/>
      <point x="415" y="0" type="curve" smooth="yes"/>
      <point x="446" y="0" type="line" smooth="yes"/>
      <point x="449" y="0"/>
      <point x="452" y="3"/>
      <point x="452" y="6" type="curve" smooth="yes"/>
    </contour>
    <contour>
      <point x="761" y="318" type="line" smooth="yes"/>
      <point x="761" y="452"/>
      <point x="700" y="526"/>
      <point x="590" y="526" type="curve" smooth="yes"/>
      <point x="508" y="526"/>
      <point x="461" y="491"/>
      <point x="439" y="429" type="curve"/>
      <point x="430" y="426" type="line"/>
      <point x="452" y="318" type="line"/>
      <point x="452" y="426"/>
      <point x="495" y="486"/>
      <point x="590" y="486" type="curve" smooth="yes"/>
      <point x="672" y="486"/>
      <point x="718" y="426"/>
      <point x="718" y="318" type="curve" smooth="yes"/>
      <point x="718" y="6" type="line" smooth="yes"/>
      <point x="718" y="3"/>
      <point x="721" y="0"/>
      <point x="724" y="0" type="curve" smooth="yes"/>
      <point x="755" y="0" type="line" smooth="yes"/>
      <point x="758" y="0"/>
      <point x="761" y="3"/>
      <point x="761" y="6" type="curve" smooth="yes"/>
    </contour>
  </outline>
</glyph>
<glyph name="o" format="1">
  <advance width="578"/>
  <unicode hex="006F"/>
  <outline>
    <contour>
      <point x="426" y="-6"/>
      <point x="518" y="103"/>
      <point x="518" y="266" type="curve" smooth="yes"/>
      <point x="518" y="422"/>
      <point x="426" y="526"/>
      <point x="289" y="526" type="curve" smooth="yes"/>
      <point x="152" y="526"/>
      <point x="60" y="422"/>
      <point x="60" y="266" type="curve" smooth="yes"/>
      <point x="60" y="103"/>
      <point x="152" y="-6"/>
      <point x="289" y="-6" type="curve" smooth="yes"/>
    </contour>
    <contour>
      <point x="179" y="34"/>
      <point x="106" y="127"/>
      <point x="106" y="266" type="curve" smooth="yes"/>
      <point x="106" y="398"/>
      <point x="179" y="486"/>
      <point x="289" y="486" type="curve" smooth="yes"/>
      <point x="399" y="486"/>
      <point x="472" y="398"/>
      <point x="472" y="266" type="curve" smooth="yes"/>
      <point x="472" y="127"/>
      <point x="399" y="34"/>
      <point x="289" y="34" type="curve" smooth="yes"/>
    </contour>
  </outline>
</glyph>
<glyph name="q" format="1">
  <advance width="597"/>
  <unicode hex="0071"/>
  <outline>
    <contour>
      <point x="494" y="-280"/>
      <point x="497" y="-277"/>
      <point x="497" y="-274" type="curve" smooth="yes"/>
      <point x="497" y="514" type="line" smooth="yes"/>
      <point x="497" y="517"/>
      <point x="494" y="520"/>
      <point x="491" y="520" type="curve" smooth="yes"/>
      <point x="461" y="520" type="line" smooth="yes"/>
      <point x="457" y="520"/>
      <point x="455" y="517"/>
      <point x="455" y="513" type="curve" smooth="yes"/>
      <point x="459" y="416" type="line"/>
      <point x="455" y="418" type="line"/>
      <point x="455" y="102" type="line"/>
      <point x="459" y="104" type="line"/>
      <point x="455" y="37" type="line"/>
      <point x="455" y="-274" type="line" smooth="yes"/>
      <point x="455" y="-277"/>
      <point x="458" y="-280"/>
      <point x="461" y="-280" type="curve" smooth="yes"/>
      <point x="491" y="-280" type="line" smooth="yes"/>
    </contour>
    <contour>
      <point x="425" y="492"/>
      <point x="370" y="526"/>
      <point x="278" y="526" type="curve" smooth="yes"/>
      <point x="147" y="526"/>
      <point x="60" y="421"/>
      <point x="60" y="264" type="curve" smooth="yes"/>
      <point x="60" y="102"/>
      <point x="147" y="-6"/>
      <point x="278" y="-6" type="curve" smooth="yes"/>
      <point x="370" y="-6"/>
      <point x="425" y="28"/>
      <point x="451" y="100" type="curve"/>
      <point x="455" y="102" type="line"/>
      <point x="455" y="186" type="line"/>
      <point x="455" y="107"/>
      <point x="404" y="34"/>
      <point x="298" y="34" type="curve" smooth="yes"/>
      <point x="183" y="34"/>
      <point x="106" y="126"/>
      <point x="106" y="264" type="curve" smooth="yes"/>
      <point x="106" y="397"/>
      <point x="183" y="486"/>
      <point x="298" y="486" type="curve" smooth="yes"/>
      <point x="404" y="486"/>
      <point x="455" y="413"/>
      <point x="455" y="334" type="curve"/>
      <point x="455" y="418" type="line"/>
      <point x="451" y="420" type="line"/>
    </contour>
  </outline>
</glyph>
<glyph name="r" format="1">
  <advance width="463"/>
  <unicode hex="0072"/>
  <outline>
    <contour>
      <point x="100" y="6" type="line" smooth="yes"/>
      <point x="100" y="3"/>
      <point x="103" y="0"/>
      <point x="106" y="0" type="curve" smooth="yes"/>
      <point x="137" y="0" type="line" smooth="yes"/>
      <point x="140" y="0"/>
      <point x="143" y="3"/>
      <point x="143" y="6" type="curve" smooth="yes"/>
      <point x="143" y="417" type="line"/>
      <point x="139" y="416" type="line"/>
      <point x="143" y="514" type="line"/>
      <point x="143" y="517"/>
      <point x="140" y="520"/>
      <point x="137" y="520" type="curve" smooth="yes"/>
      <point x="106" y="520" type="line" smooth="yes"/>
      <point x="103" y="520"/>
      <point x="100" y="517"/>
      <point x="100" y="514" type="curve" smooth="yes"/>
    </contour>
    <contour>
      <point x="397" y="421" type="line" smooth="yes"/>
      <point x="400" y="421"/>
      <point x="403" y="424"/>
      <point x="403" y="427" type="curve" smooth="yes"/>
      <point x="403" y="486"/>
      <point x="361" y="526"/>
      <point x="297" y="526" type="curve" smooth="yes"/>
      <point x="225" y="526"/>
      <point x="173" y="490"/>
      <point x="147" y="418" type="curve"/>
      <point x="143" y="417" type="line"/>
      <point x="143" y="345" type="line"/>
      <point x="161" y="416"/>
      <point x="217" y="486"/>
      <point x="297" y="486" type="curve" smooth="yes"/>
      <point x="335" y="486"/>
      <point x="360" y="462"/>
      <point x="360" y="427" type="curve" smooth="yes"/>
      <point x="360" y="424"/>
      <point x="363" y="421"/>
      <point x="366" y="421" type="curve" smooth="yes"/>
    </contour>
  </outline>
</glyph>
<glyph name="t" format="1">
  <advance width="329"/>
  <unicode hex="0074"/>
  <outline>
    <contour>
      <point x="120" y="103" type="line" smooth="yes"/>
      <point x="120" y="32"/>
      <point x="165" y="-6"/>
      <point x="264" y="-6" type="curve" smooth="yes"/>
      <point x="267" y="-6"/>
      <point x="270" y="-4"/>
      <point x="270" y="0" type="curve" smooth="yes"/>
      <point x="270" y="28" type="line" smooth="yes"/>
      <point x="270" y="31"/>
      <point x="267" y="34"/>
      <point x="264" y="34" type="curve" smooth="yes"/>
      <point x="194" y="34"/>
      <point x="162" y="60"/>
      <point x="162" y="103" type="curve" smooth="yes"/>
      <point x="162" y="695" type="line" smooth="yes"/>
      <point x="162" y="699"/>
      <point x="159" y="702"/>
      <point x="155" y="700" type="curve" smooth="yes"/>
      <point x="124" y="685" type="line" smooth="yes"/>
      <point x="121" y="683"/>
      <point x="120" y="681"/>
      <point x="120" y="678" type="curve" smooth="yes"/>
    </contour>
    <contour>
      <point x="63" y="520"/>
      <point x="60" y="517"/>
      <point x="60" y="514" type="curve" smooth="yes"/>
      <point x="60" y="486" type="line" smooth="yes"/>
      <point x="60" y="483"/>
      <point x="63" y="480"/>
      <point x="66" y="480" type="curve" smooth="yes"/>
      <point x="283" y="480" type="line" smooth="yes"/>
      <point x="286" y="480"/>
      <point x="289" y="483"/>
      <point x="289" y="486" type="curve" smooth="yes"/>
      <point x="289" y="514" type="line" smooth="yes"/>
      <point x="289" y="517"/>
      <point x="286" y="520"/>
      <point x="283" y="520" type="curve" smooth="yes"/>
      <point x="66" y="520" type="line" smooth="yes"/>
    </contour>
  </outline>
</glyph>
<glyph name="egrave" format="1">
  <advance width="600"/>
  <unicode hex="00E8"/>
  <outline>
    <contour>
      <point x="141" y="526"/>
      <point x="60" y="431"/>
      <point x="60" y="261" type="curve"/>
      <point x="106" y="261" type="line"/>
      <point x="106" y="406"/>
      <point x="170" y="486"/>
      <point x="286" y="486" type="curve" smooth="yes"/>
      <point x="389" y="486"/>
      <point x="457" y="428"/>
      <point x="457" y="290" type="curve" smooth="yes"/>
      <point x="457" y="282"/>
      <point x="456" y="281"/>
      <point x="450" y="281" type="curve" smooth="yes"/>
      <point x="96" y="281" type="line"/>
      <point x="96" y="241" type="line"/>
      <point x="492" y="241" type="line" smooth="yes"/>
      <point x="499" y="241"/>
      <point x="503" y="245"/>
      <point x="503" y="252" type="curve" smooth="yes"/>
      <point x="503" y="448"/>
      <point x="426" y="526"/>
      <point x="286" y="526" type="curve" smooth="yes"/>
    </contour>
    <contour>
      <point x="413" y="-4"/>
      <point x="491" y="51"/>
      <point x="491" y="134" type="curve" smooth="yes"/>
      <point x="491" y="137"/>
      <point x="489" y="139"/>
      <point x="485" y="139" type="curve" smooth="yes"/>
      <point x="454" y="139" type="line" smooth="yes"/>
      <point x="450" y="139"/>
      <point x="448" y="137"/>
      <point x="448" y="133" type="curve" smooth="yes"/>
      <point x="448" y="75"/>
      <point x="387" y="36"/>
      <point x="296" y="36" type="curve" smooth="yes"/>
      <point x="174" y="36"/>
      <point x="106" y="116"/>
      <point x="106" y="261" type="curve"/>
      <point x="60" y="261" type="line"/>
      <point x="60" y="91"/>
      <point x="144" y="-4"/>
      <point x="296" y="-4" type="curve" smooth="yes"/>
    </contour>
    <contour>
      <point x="170" y="761" type="line" smooth="yes"/>
      <point x="166" y="761"/>
      <point x="164" y="758"/>
      <point x="166" y="754" type="curve" smooth="yes"/>
      <point x="260" y="605" type="line" smooth="yes"/>
      <point x="262" y="603"/>
      <point x="265" y="601"/>
      <point x="268" y="601" type="curve" smooth="yes"/>
      <point x="302" y="601" type="line" smooth="yes"/>
      <point x="306" y="601"/>
      <point x="308" y="604"/>
      <point x="306" y="608" type="curve" smooth="yes"/>
      <point x="215" y="757" type="line" smooth="yes"/>
      <point x="214" y="759"/>
      <point x="211" y="761"/>
      <point x="208" y="761" type="curve" smooth="yes"/>
    </contour>
  </outline>
</glyph>
<glyph name="emdash" format="1">
  <advance width="872"/>
  <unicode hex="2014"/>
  <outline>
    <contour>
      <point x="40" y="281" type="line" smooth="yes"/>
      <point x="40" y="278"/>
      <point x="43" y="275"/>
      <point x="46" y="275" type="curve" smooth="yes"/>
      <point x="826" y="275" type="line" smooth="yes"/>
      <point x="829" y="275"/>
      <point x="832" y="278"/>
      <point x="832" y="281" type="curve" smooth="yes"/>
      <point x="832" y="309" type="line" smooth="yes"/>
      <point x="832" y="312"/>
      <point x="829" y="315"/>
      <point x="826" y="315" type="curve" smooth="yes"/>
      <point x="46" y="315" type="line" smooth="yes"/>
      <point x="43" y="315"/>
      <point x="40" y="312"/>
      <point x="40" y="309" type="curve" smooth="yes"/>
    </contour>
  </outline>
</glyph>
